<?xml version="1.0"?>
<svg xmlns="http://www.w3.org/2000/svg" xmlns:xlink="http://www.w3.org/1999/xlink" xmlns:svgjs="http://svgjs.com/svgjs" version="1.1" width="512" height="512" x="0" y="0" viewBox="0 0 447 448" style="enable-background:new 0 0 512 512" xml:space="preserve" class=""><g><path xmlns="http://www.w3.org/2000/svg" d="m24.5 384h149.601562l-72-48h-77.601562c-13.253906 0-24 10.746094-24 24s10.746094 24 24 24zm0 0" fill="#ffffff" data-original="#000000" style=""/><path xmlns="http://www.w3.org/2000/svg" d="m263.898438 336h-132.972657l69.375 46.257812zm0 0" fill="#ffffff" data-original="#000000" style=""/><path xmlns="http://www.w3.org/2000/svg" d="m104.5 320h199.695312c-4.242187-54.144531-49.386718-95.9375-103.695312-96h-96c-54.308594.0625-99.453125 41.855469-103.695312 96zm112-48h16v16h-16zm-24-32h16v16h-16zm-24 32h16v16h-16zm-24-32h16v16h-16zm-24 32h16v16h-16zm-24-32h16v16h-16zm-24 32h16v16h-16zm0 0" fill="#ffffff" data-original="#000000" style=""/><path xmlns="http://www.w3.org/2000/svg" d="m24.5 400h-24v24c0 13.253906 10.746094 24 24 24h256c13.253906 0 24-10.746094 24-24v-24zm0 0" fill="#ffffff" data-original="#000000" style=""/><path xmlns="http://www.w3.org/2000/svg" d="m246.347656 217.183594c7.875 3.269531 15.382813 7.359375 22.398438 12.207031l-1.910156-28.863281 16-1.054688 2.921874 44.136719c22.28125 22.429687 34.773438 52.773437 34.742188 84.390625 0 4.417969-3.582031 8-8 8h-.207031c10.941406 14.128906 10.941406 33.871094 0 48h.207031c4.417969 0 8 3.582031 8 8v32c-.03125 8.683594-2.914062 17.117188-8.207031 24h80.800781l22.796875-304h-174.765625zm34.152344-49.75 1.144531 16-15.960937 1.132812-1.152344-16zm0 0" fill="#ffffff" data-original="#000000" style=""/><path xmlns="http://www.w3.org/2000/svg" d="m344.5 104h-128v24h224v-24zm0 0" fill="#ffffff" data-original="#000000" style=""/><path xmlns="http://www.w3.org/2000/svg" d="m320.5 0h16v88h-16zm0 0" fill="#ffffff" data-original="#000000" style=""/><path xmlns="http://www.w3.org/2000/svg" d="m288.898438 337.601562-63.796876 46.398438h55.398438c11.601562.023438 21.546875-8.269531 23.617188-19.683594 2.066406-11.417968-4.34375-22.671875-15.21875-26.714844zm0 0" fill="#ffffff" data-original="#000000" style=""/></g></svg>
